<svg version="1.1" width="160px" height="240px" baseProfile="full" xmlns="http://www.w3.org/2000/svg" xmlns:xlink="http://www.w3.org/1999/xlink" xmlns:ev="http://www.w3.org/2001/xml-events">
<g fill-opacity="0.5">
	<path d="M62.409,225.258c0,0.804-0.279,1.456-0.838,1.961c-0.614,0.551-1.471,0.825-2.57,0.825c-1.015,0-1.83-0.195-2.444-0.588
		l0.35-1.26c0.663,0.392,1.391,0.588,2.184,0.588c0.569,0,1.012-0.128,1.33-0.385s0.476-0.6,0.476-1.029
		c0-0.383-0.131-0.704-0.392-0.966c-0.261-0.261-0.695-0.504-1.302-0.728c-1.652-0.616-2.478-1.517-2.478-2.702
		c0-0.775,0.292-1.409,0.875-1.904c0.583-0.494,1.355-0.742,2.317-0.742c0.859,0,1.573,0.149,2.142,0.448l-0.379,1.231
		c-0.534-0.289-1.138-0.434-1.812-0.434c-0.534,0-0.951,0.131-1.251,0.392c-0.253,0.233-0.379,0.519-0.379,0.854
		c0,0.373,0.145,0.682,0.434,0.924c0.252,0.225,0.709,0.467,1.372,0.729c0.812,0.326,1.409,0.709,1.792,1.147
		C62.217,224.06,62.409,224.605,62.409,225.258z"/>
	<path d="M69.829,227.904h-1.33l-0.084-1.036h-0.028c-0.476,0.794-1.195,1.19-2.156,1.19c-0.672,0-1.208-0.21-1.61-0.63
		c-0.476-0.514-0.714-1.288-0.714-2.324v-4.004h1.512v3.752c0,1.307,0.448,1.96,1.344,1.96c0.672,0,1.139-0.327,1.4-0.98
		c0.065-0.168,0.098-0.359,0.098-0.574v-4.157h1.512v4.844C69.772,226.588,69.791,227.242,69.829,227.904z"/>
	<path d="M78.172,224.418c0,1.158-0.315,2.072-0.943,2.744c-0.563,0.598-1.263,0.896-2.098,0.896c-0.901,0-1.548-0.322-1.943-0.966
		v3.569h-1.512v-7.325c0-0.727-0.019-1.473-0.056-2.236h1.33l0.084,1.078h0.028c0.504-0.812,1.27-1.219,2.296-1.219
		c0.803,0,1.472,0.317,2.009,0.952C77.904,222.547,78.172,223.382,78.172,224.418z M76.632,224.475c0-0.663-0.149-1.209-0.448-1.639
		c-0.327-0.447-0.765-0.672-1.316-0.672c-0.374,0-0.712,0.124-1.015,0.371s-0.502,0.572-0.595,0.973
		c-0.047,0.188-0.07,0.341-0.07,0.463v1.134c0,0.494,0.152,0.912,0.455,1.253s0.698,0.511,1.183,0.511
		c0.569,0,1.013-0.219,1.33-0.658C76.473,225.771,76.632,225.193,76.632,224.475z"/>
	<path d="M86.068,224.418c0,1.158-0.314,2.072-0.943,2.744c-0.563,0.598-1.263,0.896-2.098,0.896c-0.901,0-1.549-0.322-1.943-0.966
		v3.569h-1.512v-7.325c0-0.727-0.019-1.473-0.056-2.236h1.33l0.084,1.078h0.028c0.504-0.812,1.27-1.219,2.296-1.219
		c0.803,0,1.473,0.317,2.01,0.952C85.8,222.547,86.068,223.382,86.068,224.418z M84.528,224.475c0-0.663-0.149-1.209-0.448-1.639
		c-0.326-0.447-0.766-0.672-1.316-0.672c-0.373,0-0.711,0.124-1.015,0.371s-0.502,0.572-0.595,0.973
		c-0.047,0.188-0.07,0.341-0.07,0.463v1.134c0,0.494,0.152,0.912,0.455,1.253s0.697,0.511,1.184,0.511
		c0.568,0,1.012-0.219,1.33-0.658C84.369,225.771,84.528,225.193,84.528,224.475z"/>
	<path d="M93.754,224.446c0,1.046-0.299,1.904-0.896,2.576c-0.625,0.69-1.455,1.036-2.492,1.036c-0.998,0-1.794-0.331-2.387-0.994
		c-0.592-0.663-0.889-1.498-0.889-2.506c0-1.055,0.306-1.918,0.917-2.59c0.611-0.673,1.435-1.009,2.472-1.009
		c0.998,0,1.801,0.332,2.407,0.994C93.465,222.599,93.754,223.429,93.754,224.446z M92.186,224.481c0-0.624-0.135-1.158-0.406-1.605
		c-0.316-0.54-0.77-0.81-1.357-0.81c-0.607,0-1.068,0.27-1.386,0.81c-0.271,0.447-0.406,0.991-0.406,1.634
		c0,0.623,0.136,1.158,0.406,1.604c0.326,0.54,0.784,0.81,1.372,0.81c0.578,0,1.031-0.274,1.357-0.823
		C92.046,225.645,92.186,225.104,92.186,224.481z"/>
	<path d="M98.793,222.431c-0.148-0.028-0.307-0.042-0.475-0.042c-0.533,0-0.943,0.2-1.232,0.602
		c-0.252,0.354-0.379,0.803-0.379,1.344v3.57h-1.512v-4.662c0-0.784-0.014-1.498-0.041-2.142h1.315l0.056,1.302h0.043
		c0.158-0.448,0.41-0.808,0.756-1.078c0.336-0.242,0.699-0.364,1.092-0.364c0.14,0,0.266,0.01,0.377,0.028V222.431z"/>
	<path d="M103.707,222.234h-1.666v3.304c0,0.84,0.295,1.26,0.883,1.26c0.271,0,0.494-0.022,0.672-0.069l0.042,1.147
		c-0.299,0.112-0.69,0.168-1.177,0.168c-0.597,0-1.063-0.182-1.399-0.546c-0.336-0.363-0.504-0.975-0.504-1.834v-3.43h-0.994v-1.134
		h0.994v-1.246l1.483-0.448v1.694h1.666V222.234z"/>
</g>
<g fill-opacity="0.17">
	<path d="M62.409,227.258c0,0.804-0.279,1.456-0.838,1.961c-0.614,0.551-1.471,0.825-2.57,0.825c-1.015,0-1.83-0.195-2.444-0.588
		l0.35-1.26c0.663,0.392,1.391,0.588,2.184,0.588c0.569,0,1.012-0.128,1.33-0.385s0.476-0.6,0.476-1.029
		c0-0.383-0.131-0.704-0.392-0.966c-0.261-0.261-0.695-0.504-1.302-0.728c-1.652-0.616-2.478-1.517-2.478-2.702
		c0-0.775,0.292-1.409,0.875-1.904c0.583-0.494,1.355-0.742,2.317-0.742c0.859,0,1.573,0.149,2.142,0.448l-0.379,1.231
		c-0.534-0.289-1.138-0.434-1.812-0.434c-0.534,0-0.951,0.131-1.251,0.392c-0.253,0.233-0.379,0.519-0.379,0.854
		c0,0.373,0.145,0.682,0.434,0.924c0.252,0.225,0.709,0.467,1.372,0.729c0.812,0.326,1.409,0.709,1.792,1.147
		C62.217,226.06,62.409,226.605,62.409,227.258z"/>
	<path d="M69.829,229.904h-1.33l-0.084-1.036h-0.028c-0.476,0.794-1.195,1.19-2.156,1.19c-0.672,0-1.208-0.21-1.61-0.63
		c-0.476-0.514-0.714-1.288-0.714-2.324v-4.004h1.512v3.752c0,1.307,0.448,1.96,1.344,1.96c0.672,0,1.139-0.327,1.4-0.98
		c0.065-0.168,0.098-0.359,0.098-0.574v-4.157h1.512v4.844C69.772,228.588,69.791,229.242,69.829,229.904z"/>
	<path d="M78.172,226.418c0,1.158-0.315,2.072-0.943,2.744c-0.563,0.598-1.263,0.896-2.098,0.896c-0.901,0-1.548-0.322-1.943-0.966
		v3.569h-1.512v-7.325c0-0.727-0.019-1.473-0.056-2.236h1.33l0.084,1.078h0.028c0.504-0.812,1.27-1.219,2.296-1.219
		c0.803,0,1.472,0.317,2.009,0.952C77.904,224.547,78.172,225.382,78.172,226.418z M76.632,226.475c0-0.663-0.149-1.209-0.448-1.639
		c-0.327-0.447-0.765-0.672-1.316-0.672c-0.374,0-0.712,0.124-1.015,0.371s-0.502,0.572-0.595,0.973
		c-0.047,0.188-0.07,0.341-0.07,0.463v1.134c0,0.494,0.152,0.912,0.455,1.253s0.698,0.511,1.183,0.511
		c0.569,0,1.013-0.219,1.33-0.658C76.473,227.771,76.632,227.193,76.632,226.475z"/>
	<path d="M86.068,226.418c0,1.158-0.314,2.072-0.943,2.744c-0.563,0.598-1.263,0.896-2.098,0.896c-0.901,0-1.549-0.322-1.943-0.966
		v3.569h-1.512v-7.325c0-0.727-0.019-1.473-0.056-2.236h1.33l0.084,1.078h0.028c0.504-0.812,1.27-1.219,2.296-1.219
		c0.803,0,1.473,0.317,2.01,0.952C85.8,224.547,86.068,225.382,86.068,226.418z M84.528,226.475c0-0.663-0.149-1.209-0.448-1.639
		c-0.326-0.447-0.766-0.672-1.316-0.672c-0.373,0-0.711,0.124-1.015,0.371s-0.502,0.572-0.595,0.973
		c-0.047,0.188-0.07,0.341-0.07,0.463v1.134c0,0.494,0.152,0.912,0.455,1.253s0.697,0.511,1.184,0.511
		c0.568,0,1.012-0.219,1.33-0.658C84.369,227.771,84.528,227.193,84.528,226.475z"/>
	<path d="M93.754,226.446c0,1.046-0.299,1.904-0.896,2.576c-0.625,0.69-1.455,1.036-2.492,1.036c-0.998,0-1.794-0.331-2.387-0.994
		c-0.592-0.663-0.889-1.498-0.889-2.506c0-1.055,0.306-1.918,0.917-2.59c0.611-0.673,1.435-1.009,2.472-1.009
		c0.998,0,1.801,0.332,2.407,0.994C93.465,224.599,93.754,225.429,93.754,226.446z M92.186,226.481c0-0.624-0.135-1.158-0.406-1.605
		c-0.316-0.54-0.77-0.81-1.357-0.81c-0.607,0-1.068,0.27-1.386,0.81c-0.271,0.447-0.406,0.991-0.406,1.634
		c0,0.623,0.136,1.158,0.406,1.604c0.326,0.54,0.784,0.81,1.372,0.81c0.578,0,1.031-0.274,1.357-0.823
		C92.046,227.645,92.186,227.104,92.186,226.481z"/>
	<path d="M98.793,224.431c-0.148-0.028-0.307-0.042-0.475-0.042c-0.533,0-0.943,0.2-1.232,0.602
		c-0.252,0.354-0.379,0.803-0.379,1.344v3.57h-1.512v-4.662c0-0.784-0.014-1.498-0.041-2.142h1.315l0.056,1.302h0.043
		c0.158-0.448,0.41-0.808,0.756-1.078c0.336-0.242,0.699-0.364,1.092-0.364c0.14,0,0.266,0.01,0.377,0.028V224.431z"/>
	<path d="M103.707,224.234h-1.666v3.304c0,0.84,0.295,1.26,0.883,1.26c0.271,0,0.494-0.022,0.672-0.069l0.042,1.147
		c-0.299,0.112-0.69,0.168-1.177,0.168c-0.597,0-1.063-0.182-1.399-0.546c-0.336-0.363-0.504-0.975-0.504-1.834v-3.43h-0.994v-1.134
		h0.994v-1.246l1.483-0.448v1.694h1.666V224.234z"/>
</g>
<g>
	<path fill="#FFFFFF" d="M62.409,226.258c0,0.804-0.279,1.456-0.838,1.961c-0.614,0.551-1.471,0.825-2.57,0.825
		c-1.015,0-1.83-0.195-2.444-0.588l0.35-1.26c0.663,0.392,1.391,0.588,2.184,0.588c0.569,0,1.012-0.128,1.33-0.385
		s0.476-0.6,0.476-1.029c0-0.383-0.131-0.704-0.392-0.966c-0.261-0.261-0.695-0.504-1.302-0.728
		c-1.652-0.616-2.478-1.517-2.478-2.702c0-0.775,0.292-1.409,0.875-1.904c0.583-0.494,1.355-0.742,2.317-0.742
		c0.859,0,1.573,0.149,2.142,0.448l-0.379,1.231c-0.534-0.289-1.138-0.434-1.812-0.434c-0.534,0-0.951,0.131-1.251,0.392
		c-0.253,0.233-0.379,0.519-0.379,0.854c0,0.373,0.145,0.682,0.434,0.924c0.252,0.225,0.709,0.467,1.372,0.729
		c0.812,0.326,1.409,0.709,1.792,1.147C62.217,225.06,62.409,225.605,62.409,226.258z"/>
	<path fill="#FFFFFF" d="M69.829,228.904h-1.33l-0.084-1.036h-0.028c-0.476,0.794-1.195,1.19-2.156,1.19
		c-0.672,0-1.208-0.21-1.61-0.63c-0.476-0.514-0.714-1.288-0.714-2.324v-4.004h1.512v3.752c0,1.307,0.448,1.96,1.344,1.96
		c0.672,0,1.139-0.327,1.4-0.98c0.065-0.168,0.098-0.359,0.098-0.574v-4.157h1.512v4.844
		C69.772,227.588,69.791,228.242,69.829,228.904z"/>
	<path fill="#FFFFFF" d="M78.172,225.418c0,1.158-0.315,2.072-0.943,2.744c-0.563,0.598-1.263,0.896-2.098,0.896
		c-0.901,0-1.548-0.322-1.943-0.966v3.569h-1.512v-7.325c0-0.727-0.019-1.473-0.056-2.236h1.33l0.084,1.078h0.028
		c0.504-0.812,1.27-1.219,2.296-1.219c0.803,0,1.472,0.317,2.009,0.952C77.904,223.547,78.172,224.382,78.172,225.418z
		 M76.632,225.475c0-0.663-0.149-1.209-0.448-1.639c-0.327-0.447-0.765-0.672-1.316-0.672c-0.374,0-0.712,0.124-1.015,0.371
		s-0.502,0.572-0.595,0.973c-0.047,0.188-0.07,0.341-0.07,0.463v1.134c0,0.494,0.152,0.912,0.455,1.253s0.698,0.511,1.183,0.511
		c0.569,0,1.013-0.219,1.33-0.658C76.473,226.771,76.632,226.193,76.632,225.475z"/>
	<path fill="#FFFFFF" d="M86.068,225.418c0,1.158-0.314,2.072-0.943,2.744c-0.563,0.598-1.263,0.896-2.098,0.896
		c-0.901,0-1.549-0.322-1.943-0.966v3.569h-1.512v-7.325c0-0.727-0.019-1.473-0.056-2.236h1.33l0.084,1.078h0.028
		c0.504-0.812,1.27-1.219,2.296-1.219c0.803,0,1.473,0.317,2.01,0.952C85.8,223.547,86.068,224.382,86.068,225.418z M84.528,225.475
		c0-0.663-0.149-1.209-0.448-1.639c-0.326-0.447-0.766-0.672-1.316-0.672c-0.373,0-0.711,0.124-1.015,0.371
		s-0.502,0.572-0.595,0.973c-0.047,0.188-0.07,0.341-0.07,0.463v1.134c0,0.494,0.152,0.912,0.455,1.253s0.697,0.511,1.184,0.511
		c0.568,0,1.012-0.219,1.33-0.658C84.369,226.771,84.528,226.193,84.528,225.475z"/>
	<path fill="#FFFFFF" d="M93.754,225.446c0,1.046-0.299,1.904-0.896,2.576c-0.625,0.69-1.455,1.036-2.492,1.036
		c-0.998,0-1.794-0.331-2.387-0.994c-0.592-0.663-0.889-1.498-0.889-2.506c0-1.055,0.306-1.918,0.917-2.59
		c0.611-0.673,1.435-1.009,2.472-1.009c0.998,0,1.801,0.332,2.407,0.994C93.465,223.599,93.754,224.429,93.754,225.446z
		 M92.186,225.481c0-0.624-0.135-1.158-0.406-1.605c-0.316-0.54-0.77-0.81-1.357-0.81c-0.607,0-1.068,0.27-1.386,0.81
		c-0.271,0.447-0.406,0.991-0.406,1.634c0,0.623,0.136,1.158,0.406,1.604c0.326,0.54,0.784,0.81,1.372,0.81
		c0.578,0,1.031-0.274,1.357-0.823C92.046,226.645,92.186,226.104,92.186,225.481z"/>
	<path fill="#FFFFFF" d="M98.793,223.431c-0.148-0.028-0.307-0.042-0.475-0.042c-0.533,0-0.943,0.2-1.232,0.602
		c-0.252,0.354-0.379,0.803-0.379,1.344v3.57h-1.512v-4.662c0-0.784-0.014-1.498-0.041-2.142h1.315l0.056,1.302h0.043
		c0.158-0.448,0.41-0.808,0.756-1.078c0.336-0.242,0.699-0.364,1.092-0.364c0.14,0,0.266,0.01,0.377,0.028V223.431z"/>
	<path fill="#FFFFFF" d="M103.707,223.234h-1.666v3.304c0,0.84,0.295,1.26,0.883,1.26c0.271,0,0.494-0.022,0.672-0.069l0.042,1.147
		c-0.299,0.112-0.69,0.168-1.177,0.168c-0.597,0-1.063-0.182-1.399-0.546c-0.336-0.363-0.504-0.975-0.504-1.834v-3.43h-0.994v-1.134
		h0.994v-1.246l1.483-0.448v1.694h1.666V223.234z"/>
</g>
<g fill-opacity="0.5">
	<path d="M63.787,188.994c0,0.271-0.089,0.49-0.266,0.658c-0.178,0.168-0.406,0.252-0.686,0.252c-0.252,0-0.464-0.086-0.637-0.259
		s-0.259-0.39-0.259-0.651c0-0.261,0.088-0.476,0.266-0.644c0.177-0.169,0.397-0.253,0.658-0.253s0.48,0.084,0.658,0.253
		C63.698,188.519,63.787,188.733,63.787,188.994z M63.619,197.828h-1.512v-6.804h1.512V197.828z"/>
	<path d="M71.431,189.666h-2.716v8.162h-1.512v-8.162h-2.688v-1.273h6.916V189.666z"/>
	<path d="M77.661,197.828h-1.33l-0.084-1.036h-0.028c-0.476,0.794-1.195,1.19-2.156,1.19c-0.672,0-1.208-0.21-1.61-0.63
		c-0.476-0.514-0.714-1.288-0.714-2.324v-4.004h1.512v3.752c0,1.307,0.448,1.96,1.344,1.96c0.672,0,1.139-0.327,1.4-0.98
		c0.065-0.168,0.098-0.359,0.098-0.574v-4.157h1.512v4.844C77.605,196.512,77.624,197.166,77.661,197.828z"/>
	<path d="M85.431,197.828h-1.513v-3.906c0-1.204-0.457-1.806-1.371-1.806c-0.448,0-0.812,0.166-1.092,0.497
		c-0.28,0.331-0.42,0.721-0.42,1.169v4.046h-1.513v-4.858c0-0.597-0.019-1.245-0.056-1.945h1.33l0.07,1.05h0.041
		c0.178-0.327,0.439-0.598,0.785-0.812c0.41-0.252,0.867-0.378,1.371-0.378c0.635,0,1.162,0.206,1.582,0.616
		c0.523,0.504,0.784,1.256,0.784,2.254V197.828z"/>
	<path d="M92.893,194.104c0,0.271-0.019,0.499-0.056,0.686h-4.536c0.019,0.672,0.238,1.186,0.658,1.54
		c0.383,0.317,0.877,0.476,1.484,0.476c0.672,0,1.283-0.106,1.834-0.321l0.237,1.05c-0.644,0.28-1.405,0.42-2.282,0.42
		c-1.055,0-1.883-0.311-2.484-0.931c-0.602-0.621-0.903-1.454-0.903-2.499c0-1.027,0.28-1.881,0.841-2.562
		c0.588-0.728,1.381-1.092,2.379-1.092c0.98,0,1.723,0.364,2.227,1.092C92.691,192.541,92.893,193.255,92.893,194.104z
		 M91.451,193.712c0.009-0.448-0.09-0.835-0.295-1.162c-0.261-0.42-0.662-0.63-1.203-0.63c-0.495,0-0.896,0.206-1.204,0.616
		c-0.253,0.327-0.401,0.719-0.448,1.176H91.451z"/>
	<path d="M98.381,195.868c0,0.635-0.234,1.144-0.7,1.526c-0.467,0.383-1.11,0.573-1.933,0.573c-0.774,0-1.432-0.153-1.974-0.462
		l0.322-1.12c0.522,0.317,1.077,0.477,1.666,0.477c0.774,0,1.161-0.285,1.161-0.854c0-0.252-0.084-0.459-0.252-0.623
		c-0.168-0.163-0.467-0.324-0.896-0.482c-1.214-0.448-1.819-1.102-1.819-1.96c0-0.588,0.224-1.078,0.672-1.471
		c0.447-0.392,1.04-0.588,1.777-0.588c0.672,0,1.246,0.136,1.723,0.406l-0.322,1.078c-0.439-0.261-0.9-0.392-1.387-0.392
		c-0.316,0-0.564,0.074-0.741,0.224c-0.178,0.149-0.267,0.341-0.267,0.574s0.094,0.425,0.28,0.573
		c0.159,0.141,0.467,0.295,0.925,0.463C97.793,194.258,98.381,194.944,98.381,195.868z"/>
</g>
<g fill-opacity="0.17">
	<path d="M63.787,190.994c0,0.271-0.089,0.49-0.266,0.658c-0.178,0.168-0.406,0.252-0.686,0.252c-0.252,0-0.464-0.086-0.637-0.259
		s-0.259-0.39-0.259-0.651c0-0.261,0.088-0.476,0.266-0.644c0.177-0.169,0.397-0.253,0.658-0.253s0.48,0.084,0.658,0.253
		C63.698,190.519,63.787,190.733,63.787,190.994z M63.619,199.828h-1.512v-6.804h1.512V199.828z"/>
	<path d="M71.431,191.666h-2.716v8.162h-1.512v-8.162h-2.688v-1.273h6.916V191.666z"/>
	<path d="M77.661,199.828h-1.33l-0.084-1.036h-0.028c-0.476,0.794-1.195,1.19-2.156,1.19c-0.672,0-1.208-0.21-1.61-0.63
		c-0.476-0.514-0.714-1.288-0.714-2.324v-4.004h1.512v3.752c0,1.307,0.448,1.96,1.344,1.96c0.672,0,1.139-0.327,1.4-0.98
		c0.065-0.168,0.098-0.359,0.098-0.574v-4.157h1.512v4.844C77.605,198.512,77.624,199.166,77.661,199.828z"/>
	<path d="M85.431,199.828h-1.513v-3.906c0-1.204-0.457-1.806-1.371-1.806c-0.448,0-0.812,0.166-1.092,0.497
		c-0.28,0.331-0.42,0.721-0.42,1.169v4.046h-1.513v-4.858c0-0.597-0.019-1.245-0.056-1.945h1.33l0.07,1.05h0.041
		c0.178-0.327,0.439-0.598,0.785-0.812c0.41-0.252,0.867-0.378,1.371-0.378c0.635,0,1.162,0.206,1.582,0.616
		c0.523,0.504,0.784,1.256,0.784,2.254V199.828z"/>
	<path d="M92.893,196.104c0,0.271-0.019,0.499-0.056,0.686h-4.536c0.019,0.672,0.238,1.186,0.658,1.54
		c0.383,0.317,0.877,0.476,1.484,0.476c0.672,0,1.283-0.106,1.834-0.321l0.237,1.05c-0.644,0.28-1.405,0.42-2.282,0.42
		c-1.055,0-1.883-0.311-2.484-0.931c-0.602-0.621-0.903-1.454-0.903-2.499c0-1.027,0.28-1.881,0.841-2.562
		c0.588-0.728,1.381-1.092,2.379-1.092c0.98,0,1.723,0.364,2.227,1.092C92.691,194.541,92.893,195.255,92.893,196.104z
		 M91.451,195.712c0.009-0.448-0.09-0.835-0.295-1.162c-0.261-0.42-0.662-0.63-1.203-0.63c-0.495,0-0.896,0.206-1.204,0.616
		c-0.253,0.327-0.401,0.719-0.448,1.176H91.451z"/>
	<path d="M98.381,197.868c0,0.635-0.234,1.144-0.7,1.526c-0.467,0.383-1.11,0.573-1.933,0.573c-0.774,0-1.432-0.153-1.974-0.462
		l0.322-1.12c0.522,0.317,1.077,0.477,1.666,0.477c0.774,0,1.161-0.285,1.161-0.854c0-0.252-0.084-0.459-0.252-0.623
		c-0.168-0.163-0.467-0.324-0.896-0.482c-1.214-0.448-1.819-1.102-1.819-1.96c0-0.588,0.224-1.078,0.672-1.471
		c0.447-0.392,1.04-0.588,1.777-0.588c0.672,0,1.246,0.136,1.723,0.406l-0.322,1.078c-0.439-0.261-0.9-0.392-1.387-0.392
		c-0.316,0-0.564,0.074-0.741,0.224c-0.178,0.149-0.267,0.341-0.267,0.574s0.094,0.425,0.28,0.573
		c0.159,0.141,0.467,0.295,0.925,0.463C97.793,196.258,98.381,196.944,98.381,197.868z"/>
</g>
<g>
	<path fill="#FFFFFF" d="M63.787,189.994c0,0.271-0.089,0.49-0.266,0.658c-0.178,0.168-0.406,0.252-0.686,0.252
		c-0.252,0-0.464-0.086-0.637-0.259s-0.259-0.39-0.259-0.651c0-0.261,0.088-0.476,0.266-0.644c0.177-0.169,0.397-0.253,0.658-0.253
		s0.48,0.084,0.658,0.253C63.698,189.519,63.787,189.733,63.787,189.994z M63.619,198.828h-1.512v-6.804h1.512V198.828z"/>
	<path fill="#FFFFFF" d="M71.431,190.666h-2.716v8.162h-1.512v-8.162h-2.688v-1.273h6.916V190.666z"/>
	<path fill="#FFFFFF" d="M77.661,198.828h-1.33l-0.084-1.036h-0.028c-0.476,0.794-1.195,1.19-2.156,1.19
		c-0.672,0-1.208-0.21-1.61-0.63c-0.476-0.514-0.714-1.288-0.714-2.324v-4.004h1.512v3.752c0,1.307,0.448,1.96,1.344,1.96
		c0.672,0,1.139-0.327,1.4-0.98c0.065-0.168,0.098-0.359,0.098-0.574v-4.157h1.512v4.844
		C77.605,197.512,77.624,198.166,77.661,198.828z"/>
	<path fill="#FFFFFF" d="M85.431,198.828h-1.513v-3.906c0-1.204-0.457-1.806-1.371-1.806c-0.448,0-0.812,0.166-1.092,0.497
		c-0.28,0.331-0.42,0.721-0.42,1.169v4.046h-1.513v-4.858c0-0.597-0.019-1.245-0.056-1.945h1.33l0.07,1.05h0.041
		c0.178-0.327,0.439-0.598,0.785-0.812c0.41-0.252,0.867-0.378,1.371-0.378c0.635,0,1.162,0.206,1.582,0.616
		c0.523,0.504,0.784,1.256,0.784,2.254V198.828z"/>
	<path fill="#FFFFFF" d="M92.893,195.104c0,0.271-0.019,0.499-0.056,0.686h-4.536c0.019,0.672,0.238,1.186,0.658,1.54
		c0.383,0.317,0.877,0.476,1.484,0.476c0.672,0,1.283-0.106,1.834-0.321l0.237,1.05c-0.644,0.28-1.405,0.42-2.282,0.42
		c-1.055,0-1.883-0.311-2.484-0.931c-0.602-0.621-0.903-1.454-0.903-2.499c0-1.027,0.28-1.881,0.841-2.562
		c0.588-0.728,1.381-1.092,2.379-1.092c0.98,0,1.723,0.364,2.227,1.092C92.691,193.541,92.893,194.255,92.893,195.104z
		 M91.451,194.712c0.009-0.448-0.09-0.835-0.295-1.162c-0.261-0.42-0.662-0.63-1.203-0.63c-0.495,0-0.896,0.206-1.204,0.616
		c-0.253,0.327-0.401,0.719-0.448,1.176H91.451z"/>
	<path fill="#FFFFFF" d="M98.381,196.868c0,0.635-0.234,1.144-0.7,1.526c-0.467,0.383-1.11,0.573-1.933,0.573
		c-0.774,0-1.432-0.153-1.974-0.462l0.322-1.12c0.522,0.317,1.077,0.477,1.666,0.477c0.774,0,1.161-0.285,1.161-0.854
		c0-0.252-0.084-0.459-0.252-0.623c-0.168-0.163-0.467-0.324-0.896-0.482c-1.214-0.448-1.819-1.102-1.819-1.96
		c0-0.588,0.224-1.078,0.672-1.471c0.447-0.392,1.04-0.588,1.777-0.588c0.672,0,1.246,0.136,1.723,0.406l-0.322,1.078
		c-0.439-0.261-0.9-0.392-1.387-0.392c-0.316,0-0.564,0.074-0.741,0.224c-0.178,0.149-0.267,0.341-0.267,0.574
		s0.094,0.425,0.28,0.573c0.159,0.141,0.467,0.295,0.925,0.463C97.793,195.258,98.381,195.944,98.381,196.868z"/>
</g>
<g fill-opacity="0.5">
	<path d="M69.987,159.206c0,0.271-0.089,0.49-0.266,0.658c-0.178,0.168-0.406,0.252-0.686,0.252c-0.252,0-0.464-0.086-0.637-0.259
		s-0.259-0.39-0.259-0.651c0-0.261,0.088-0.476,0.266-0.644c0.177-0.169,0.397-0.253,0.658-0.253s0.48,0.084,0.658,0.253
		C69.898,158.73,69.987,158.945,69.987,159.206z M69.819,168.04h-1.512v-6.804h1.512V168.04z"/>
	<path d="M77.869,161.348c0,0.868-0.256,1.563-0.768,2.086c-0.661,0.682-1.624,1.022-2.889,1.022c-0.372,0-0.661-0.023-0.865-0.07
		v3.654h-1.512v-9.31c0.719-0.131,1.54-0.196,2.464-0.196c1.194,0,2.095,0.257,2.702,0.77
		C77.58,159.808,77.869,160.489,77.869,161.348z M76.371,161.418c0-0.551-0.176-0.973-0.529-1.267
		c-0.354-0.294-0.846-0.441-1.478-0.441c-0.418,0-0.757,0.028-1.017,0.084v3.388c0.213,0.057,0.506,0.084,0.878,0.084
		c0.669,0,1.194-0.163,1.575-0.489C76.181,162.449,76.371,161.997,76.371,161.418z"/>
	<path d="M84.029,168.04h-1.357l-0.113-0.784h-0.041c-0.467,0.626-1.13,0.938-1.988,0.938c-0.644,0-1.162-0.205-1.554-0.616
		c-0.354-0.373-0.532-0.835-0.532-1.386c0-0.831,0.348-1.466,1.043-1.904s1.673-0.653,2.934-0.645v-0.126
		c0-0.896-0.473-1.344-1.414-1.344c-0.672,0-1.266,0.168-1.779,0.504l-0.308-0.994c0.634-0.392,1.414-0.588,2.338-0.588
		c1.782,0,2.674,0.938,2.674,2.814v2.506C83.932,167.098,83.964,167.639,84.029,168.04z M82.461,165.702v-1.05
		c-1.67-0.028-2.506,0.429-2.506,1.372c0,0.354,0.098,0.62,0.292,0.798c0.195,0.177,0.441,0.266,0.739,0.266
		c0.334,0,0.643-0.104,0.925-0.314c0.283-0.21,0.457-0.479,0.522-0.806C82.451,165.894,82.461,165.805,82.461,165.702z"/>
	<path d="M91.842,168.04h-1.345l-0.069-1.092h-0.043c-0.43,0.831-1.157,1.246-2.184,1.246c-0.821,0-1.503-0.322-2.044-0.966
		c-0.542-0.645-0.812-1.479-0.812-2.507c0-1.101,0.295-1.992,0.887-2.674c0.572-0.635,1.276-0.952,2.111-0.952
		c0.92,0,1.562,0.309,1.93,0.925v-3.906h1.512v8.092C91.785,166.869,91.804,167.48,91.842,168.04z M90.273,165.17v-1.134
		c0-0.196-0.015-0.354-0.043-0.477c-0.084-0.363-0.267-0.669-0.548-0.917c-0.281-0.247-0.618-0.37-1.013-0.37
		c-0.562,0-1.004,0.224-1.328,0.672c-0.322,0.447-0.484,1.021-0.484,1.722c0,0.672,0.154,1.218,0.464,1.638
		c0.327,0.448,0.769,0.672,1.321,0.672c0.496,0,0.895-0.187,1.195-0.56C90.128,166.071,90.273,165.655,90.273,165.17z"/>
</g>
<g fill-opacity="0.17">
	<path d="M69.987,161.206c0,0.271-0.089,0.49-0.266,0.658c-0.178,0.168-0.406,0.252-0.686,0.252c-0.252,0-0.464-0.086-0.637-0.259
		s-0.259-0.39-0.259-0.651c0-0.261,0.088-0.476,0.266-0.644c0.177-0.169,0.397-0.253,0.658-0.253s0.48,0.084,0.658,0.253
		C69.898,160.73,69.987,160.945,69.987,161.206z M69.819,170.04h-1.512v-6.804h1.512V170.04z"/>
	<path d="M77.869,163.348c0,0.868-0.256,1.563-0.768,2.086c-0.661,0.682-1.624,1.022-2.889,1.022c-0.372,0-0.661-0.023-0.865-0.07
		v3.654h-1.512v-9.31c0.719-0.131,1.54-0.196,2.464-0.196c1.194,0,2.095,0.257,2.702,0.77
		C77.58,161.808,77.869,162.489,77.869,163.348z M76.371,163.418c0-0.551-0.176-0.973-0.529-1.267
		c-0.354-0.294-0.846-0.441-1.478-0.441c-0.418,0-0.757,0.028-1.017,0.084v3.388c0.213,0.057,0.506,0.084,0.878,0.084
		c0.669,0,1.194-0.163,1.575-0.489C76.181,164.449,76.371,163.997,76.371,163.418z"/>
	<path d="M84.029,170.04h-1.357l-0.113-0.784h-0.041c-0.467,0.626-1.13,0.938-1.988,0.938c-0.644,0-1.162-0.205-1.554-0.616
		c-0.354-0.373-0.532-0.835-0.532-1.386c0-0.831,0.348-1.466,1.043-1.904s1.673-0.653,2.934-0.645v-0.126
		c0-0.896-0.473-1.344-1.414-1.344c-0.672,0-1.266,0.168-1.779,0.504l-0.308-0.994c0.634-0.392,1.414-0.588,2.338-0.588
		c1.782,0,2.674,0.938,2.674,2.814v2.506C83.932,169.098,83.964,169.639,84.029,170.04z M82.461,167.702v-1.05
		c-1.67-0.028-2.506,0.429-2.506,1.372c0,0.354,0.098,0.62,0.292,0.798c0.195,0.177,0.441,0.266,0.739,0.266
		c0.334,0,0.643-0.104,0.925-0.314c0.283-0.21,0.457-0.479,0.522-0.806C82.451,167.894,82.461,167.805,82.461,167.702z"/>
	<path d="M91.842,170.04h-1.345l-0.069-1.092h-0.043c-0.43,0.831-1.157,1.246-2.184,1.246c-0.821,0-1.503-0.322-2.044-0.966
		c-0.542-0.645-0.812-1.479-0.812-2.507c0-1.101,0.295-1.992,0.887-2.674c0.572-0.635,1.276-0.952,2.111-0.952
		c0.92,0,1.562,0.309,1.93,0.925v-3.906h1.512v8.092C91.785,168.869,91.804,169.48,91.842,170.04z M90.273,167.17v-1.134
		c0-0.196-0.015-0.354-0.043-0.477c-0.084-0.363-0.267-0.669-0.548-0.917c-0.281-0.247-0.618-0.37-1.013-0.37
		c-0.562,0-1.004,0.224-1.328,0.672c-0.322,0.447-0.484,1.021-0.484,1.722c0,0.672,0.154,1.218,0.464,1.638
		c0.327,0.448,0.769,0.672,1.321,0.672c0.496,0,0.895-0.187,1.195-0.56C90.128,168.071,90.273,167.655,90.273,167.17z"/>
</g>
<g>
	<path fill="#FFFFFF" d="M69.987,160.206c0,0.271-0.089,0.49-0.266,0.658c-0.178,0.168-0.406,0.252-0.686,0.252
		c-0.252,0-0.464-0.086-0.637-0.259s-0.259-0.39-0.259-0.651c0-0.261,0.088-0.476,0.266-0.644c0.177-0.169,0.397-0.253,0.658-0.253
		s0.48,0.084,0.658,0.253C69.898,159.73,69.987,159.945,69.987,160.206z M69.819,169.04h-1.512v-6.804h1.512V169.04z"/>
	<path fill="#FFFFFF" d="M77.869,162.348c0,0.868-0.256,1.563-0.768,2.086c-0.661,0.682-1.624,1.022-2.889,1.022
		c-0.372,0-0.661-0.023-0.865-0.07v3.654h-1.512v-9.31c0.719-0.131,1.54-0.196,2.464-0.196c1.194,0,2.095,0.257,2.702,0.77
		C77.58,160.808,77.869,161.489,77.869,162.348z M76.371,162.418c0-0.551-0.176-0.973-0.529-1.267
		c-0.354-0.294-0.846-0.441-1.478-0.441c-0.418,0-0.757,0.028-1.017,0.084v3.388c0.213,0.057,0.506,0.084,0.878,0.084
		c0.669,0,1.194-0.163,1.575-0.489C76.181,163.449,76.371,162.997,76.371,162.418z"/>
	<path fill="#FFFFFF" d="M84.029,169.04h-1.357l-0.113-0.784h-0.041c-0.467,0.626-1.13,0.938-1.988,0.938
		c-0.644,0-1.162-0.205-1.554-0.616c-0.354-0.373-0.532-0.835-0.532-1.386c0-0.831,0.348-1.466,1.043-1.904s1.673-0.653,2.934-0.645
		v-0.126c0-0.896-0.473-1.344-1.414-1.344c-0.672,0-1.266,0.168-1.779,0.504l-0.308-0.994c0.634-0.392,1.414-0.588,2.338-0.588
		c1.782,0,2.674,0.938,2.674,2.814v2.506C83.932,168.098,83.964,168.639,84.029,169.04z M82.461,166.702v-1.05
		c-1.67-0.028-2.506,0.429-2.506,1.372c0,0.354,0.098,0.62,0.292,0.798c0.195,0.177,0.441,0.266,0.739,0.266
		c0.334,0,0.643-0.104,0.925-0.314c0.283-0.21,0.457-0.479,0.522-0.806C82.451,166.894,82.461,166.805,82.461,166.702z"/>
	<path fill="#FFFFFF" d="M91.842,169.04h-1.345l-0.069-1.092h-0.043c-0.43,0.831-1.157,1.246-2.184,1.246
		c-0.821,0-1.503-0.322-2.044-0.966c-0.542-0.645-0.812-1.479-0.812-2.507c0-1.101,0.295-1.992,0.887-2.674
		c0.572-0.635,1.276-0.952,2.111-0.952c0.92,0,1.562,0.309,1.93,0.925v-3.906h1.512v8.092
		C91.785,167.869,91.804,168.48,91.842,169.04z M90.273,166.17v-1.134c0-0.196-0.015-0.354-0.043-0.477
		c-0.084-0.363-0.267-0.669-0.548-0.917c-0.281-0.247-0.618-0.37-1.013-0.37c-0.562,0-1.004,0.224-1.328,0.672
		c-0.322,0.447-0.484,1.021-0.484,1.722c0,0.672,0.154,1.218,0.464,1.638c0.327,0.448,0.769,0.672,1.321,0.672
		c0.496,0,0.895-0.187,1.195-0.56C90.128,167.071,90.273,166.655,90.273,166.17z"/>
</g>
<g fill-opacity="0.5">
	<path d="M62.03,129.008c0,0.271-0.089,0.49-0.266,0.658c-0.178,0.168-0.406,0.252-0.686,0.252c-0.252,0-0.464-0.086-0.637-0.259
		s-0.259-0.39-0.259-0.651c0-0.261,0.088-0.476,0.266-0.644c0.177-0.169,0.397-0.253,0.658-0.253s0.48,0.084,0.658,0.253
		C61.941,128.532,62.03,128.747,62.03,129.008z M61.862,137.842H60.35v-6.804h1.512V137.842z"/>
	<path d="M69.912,131.149c0,0.868-0.256,1.563-0.768,2.086c-0.661,0.682-1.624,1.022-2.889,1.022c-0.372,0-0.661-0.023-0.865-0.07
		v3.654h-1.512v-9.31c0.719-0.131,1.54-0.196,2.464-0.196c1.194,0,2.095,0.257,2.702,0.77
		C69.622,129.609,69.912,130.291,69.912,131.149z M68.414,131.22c0-0.551-0.176-0.973-0.529-1.267
		c-0.354-0.294-0.846-0.441-1.478-0.441c-0.418,0-0.757,0.028-1.017,0.084v3.388c0.213,0.057,0.506,0.084,0.878,0.084
		c0.669,0,1.194-0.163,1.575-0.489C68.223,132.251,68.414,131.799,68.414,131.22z"/>
	<path d="M77.233,137.842h-1.512v-3.878c0-1.223-0.458-1.834-1.372-1.834c-0.7,0-1.181,0.354-1.442,1.063
		c-0.047,0.149-0.07,0.332-0.07,0.547v4.102h-1.512v-9.926h1.512v4.088h0.028c0.476-0.737,1.157-1.106,2.044-1.106
		c0.625,0,1.143,0.206,1.554,0.616c0.513,0.514,0.77,1.274,0.77,2.282V137.842z"/>
	<path d="M85.326,134.384c0,1.046-0.299,1.904-0.896,2.576c-0.625,0.69-1.456,1.036-2.492,1.036c-0.998,0-1.794-0.331-2.387-0.994
		c-0.593-0.663-0.889-1.498-0.889-2.506c0-1.055,0.306-1.918,0.917-2.59c0.611-0.673,1.435-1.009,2.471-1.009
		c0.999,0,1.802,0.332,2.407,0.994C85.036,132.536,85.326,133.366,85.326,134.384z M83.758,134.419c0-0.624-0.136-1.158-0.406-1.605
		c-0.317-0.54-0.77-0.81-1.357-0.81c-0.607,0-1.069,0.27-1.387,0.81c-0.271,0.447-0.406,0.991-0.406,1.634
		c0,0.623,0.135,1.158,0.406,1.604c0.326,0.54,0.784,0.81,1.372,0.81c0.579,0,1.031-0.274,1.358-0.823
		C83.617,135.582,83.758,135.042,83.758,134.419z"/>
	<path d="M92.689,137.842h-1.512v-3.906c0-1.204-0.457-1.806-1.372-1.806c-0.448,0-0.812,0.166-1.093,0.497
		c-0.279,0.331-0.42,0.721-0.42,1.169v4.046h-1.512v-4.858c0-0.597-0.019-1.245-0.056-1.945h1.33l0.069,1.05h0.043
		c0.177-0.327,0.438-0.598,0.783-0.812c0.41-0.252,0.868-0.378,1.372-0.378c0.635,0,1.162,0.206,1.582,0.616
		c0.522,0.504,0.784,1.256,0.784,2.254V137.842z"/>
	<path d="M100.151,134.118c0,0.271-0.019,0.499-0.056,0.686H95.56c0.019,0.672,0.238,1.186,0.658,1.54
		c0.382,0.317,0.877,0.476,1.483,0.476c0.672,0,1.283-0.106,1.834-0.321l0.238,1.05c-0.645,0.28-1.404,0.42-2.281,0.42
		c-1.055,0-1.884-0.311-2.485-0.931c-0.603-0.621-0.903-1.454-0.903-2.499c0-1.027,0.28-1.881,0.84-2.562
		c0.588-0.728,1.381-1.092,2.381-1.092c0.979,0,1.721,0.364,2.226,1.092C99.951,132.555,100.151,133.269,100.151,134.118z
		 M98.709,133.726c0.01-0.448-0.088-0.835-0.293-1.162c-0.262-0.42-0.663-0.63-1.205-0.63c-0.494,0-0.896,0.206-1.203,0.616
		c-0.252,0.327-0.401,0.719-0.448,1.176H98.709z"/>
</g>
<g fill-opacity="0.17">
	<path d="M62.03,131.008c0,0.271-0.089,0.49-0.266,0.658c-0.178,0.168-0.406,0.252-0.686,0.252c-0.252,0-0.464-0.086-0.637-0.259
		s-0.259-0.39-0.259-0.651c0-0.261,0.088-0.476,0.266-0.644c0.177-0.169,0.397-0.253,0.658-0.253s0.48,0.084,0.658,0.253
		C61.941,130.532,62.03,130.747,62.03,131.008z M61.862,139.842H60.35v-6.804h1.512V139.842z"/>
	<path d="M69.912,133.149c0,0.868-0.256,1.563-0.768,2.086c-0.661,0.682-1.624,1.022-2.889,1.022c-0.372,0-0.661-0.023-0.865-0.07
		v3.654h-1.512v-9.31c0.719-0.131,1.54-0.196,2.464-0.196c1.194,0,2.095,0.257,2.702,0.77
		C69.622,131.609,69.912,132.291,69.912,133.149z M68.414,133.22c0-0.551-0.176-0.973-0.529-1.267
		c-0.354-0.294-0.846-0.441-1.478-0.441c-0.418,0-0.757,0.028-1.017,0.084v3.388c0.213,0.057,0.506,0.084,0.878,0.084
		c0.669,0,1.194-0.163,1.575-0.489C68.223,134.251,68.414,133.799,68.414,133.22z"/>
	<path d="M77.233,139.842h-1.512v-3.878c0-1.223-0.458-1.834-1.372-1.834c-0.7,0-1.181,0.354-1.442,1.063
		c-0.047,0.149-0.07,0.332-0.07,0.547v4.102h-1.512v-9.926h1.512v4.088h0.028c0.476-0.737,1.157-1.106,2.044-1.106
		c0.625,0,1.143,0.206,1.554,0.616c0.513,0.514,0.77,1.274,0.77,2.282V139.842z"/>
	<path d="M85.326,136.384c0,1.046-0.299,1.904-0.896,2.576c-0.625,0.69-1.456,1.036-2.492,1.036c-0.998,0-1.794-0.331-2.387-0.994
		c-0.593-0.663-0.889-1.498-0.889-2.506c0-1.055,0.306-1.918,0.917-2.59c0.611-0.673,1.435-1.009,2.471-1.009
		c0.999,0,1.802,0.332,2.407,0.994C85.036,134.536,85.326,135.366,85.326,136.384z M83.758,136.419c0-0.624-0.136-1.158-0.406-1.605
		c-0.317-0.54-0.77-0.81-1.357-0.81c-0.607,0-1.069,0.27-1.387,0.81c-0.271,0.447-0.406,0.991-0.406,1.634
		c0,0.623,0.135,1.158,0.406,1.604c0.326,0.54,0.784,0.81,1.372,0.81c0.579,0,1.031-0.274,1.358-0.823
		C83.617,137.582,83.758,137.042,83.758,136.419z"/>
	<path d="M92.689,139.842h-1.512v-3.906c0-1.204-0.457-1.806-1.372-1.806c-0.448,0-0.812,0.166-1.093,0.497
		c-0.279,0.331-0.42,0.721-0.42,1.169v4.046h-1.512v-4.858c0-0.597-0.019-1.245-0.056-1.945h1.33l0.069,1.05h0.043
		c0.177-0.327,0.438-0.598,0.783-0.812c0.41-0.252,0.868-0.378,1.372-0.378c0.635,0,1.162,0.206,1.582,0.616
		c0.522,0.504,0.784,1.256,0.784,2.254V139.842z"/>
	<path d="M100.151,136.118c0,0.271-0.019,0.499-0.056,0.686H95.56c0.019,0.672,0.238,1.186,0.658,1.54
		c0.382,0.317,0.877,0.476,1.483,0.476c0.672,0,1.283-0.106,1.834-0.321l0.238,1.05c-0.645,0.28-1.404,0.42-2.281,0.42
		c-1.055,0-1.884-0.311-2.485-0.931c-0.603-0.621-0.903-1.454-0.903-2.499c0-1.027,0.28-1.881,0.84-2.562
		c0.588-0.728,1.381-1.092,2.381-1.092c0.979,0,1.721,0.364,2.226,1.092C99.951,134.555,100.151,135.269,100.151,136.118z
		 M98.709,135.726c0.01-0.448-0.088-0.835-0.293-1.162c-0.262-0.42-0.663-0.63-1.205-0.63c-0.494,0-0.896,0.206-1.203,0.616
		c-0.252,0.327-0.401,0.719-0.448,1.176H98.709z"/>
</g>
<g>
	<path fill="#FFFFFF" d="M62.03,130.008c0,0.271-0.089,0.49-0.266,0.658c-0.178,0.168-0.406,0.252-0.686,0.252
		c-0.252,0-0.464-0.086-0.637-0.259s-0.259-0.39-0.259-0.651c0-0.261,0.088-0.476,0.266-0.644c0.177-0.169,0.397-0.253,0.658-0.253
		s0.48,0.084,0.658,0.253C61.941,129.532,62.03,129.747,62.03,130.008z M61.862,138.842H60.35v-6.804h1.512V138.842z"/>
	<path fill="#FFFFFF" d="M69.912,132.149c0,0.868-0.256,1.563-0.768,2.086c-0.661,0.682-1.624,1.022-2.889,1.022
		c-0.372,0-0.661-0.023-0.865-0.07v3.654h-1.512v-9.31c0.719-0.131,1.54-0.196,2.464-0.196c1.194,0,2.095,0.257,2.702,0.77
		C69.622,130.609,69.912,131.291,69.912,132.149z M68.414,132.22c0-0.551-0.176-0.973-0.529-1.267
		c-0.354-0.294-0.846-0.441-1.478-0.441c-0.418,0-0.757,0.028-1.017,0.084v3.388c0.213,0.057,0.506,0.084,0.878,0.084
		c0.669,0,1.194-0.163,1.575-0.489C68.223,133.251,68.414,132.799,68.414,132.22z"/>
	<path fill="#FFFFFF" d="M77.233,138.842h-1.512v-3.878c0-1.223-0.458-1.834-1.372-1.834c-0.7,0-1.181,0.354-1.442,1.063
		c-0.047,0.149-0.07,0.332-0.07,0.547v4.102h-1.512v-9.926h1.512v4.088h0.028c0.476-0.737,1.157-1.106,2.044-1.106
		c0.625,0,1.143,0.206,1.554,0.616c0.513,0.514,0.77,1.274,0.77,2.282V138.842z"/>
	<path fill="#FFFFFF" d="M85.326,135.384c0,1.046-0.299,1.904-0.896,2.576c-0.625,0.69-1.456,1.036-2.492,1.036
		c-0.998,0-1.794-0.331-2.387-0.994c-0.593-0.663-0.889-1.498-0.889-2.506c0-1.055,0.306-1.918,0.917-2.59
		c0.611-0.673,1.435-1.009,2.471-1.009c0.999,0,1.802,0.332,2.407,0.994C85.036,133.536,85.326,134.366,85.326,135.384z
		 M83.758,135.419c0-0.624-0.136-1.158-0.406-1.605c-0.317-0.54-0.77-0.81-1.357-0.81c-0.607,0-1.069,0.27-1.387,0.81
		c-0.271,0.447-0.406,0.991-0.406,1.634c0,0.623,0.135,1.158,0.406,1.604c0.326,0.54,0.784,0.81,1.372,0.81
		c0.579,0,1.031-0.274,1.358-0.823C83.617,136.582,83.758,136.042,83.758,135.419z"/>
	<path fill="#FFFFFF" d="M92.689,138.842h-1.512v-3.906c0-1.204-0.457-1.806-1.372-1.806c-0.448,0-0.812,0.166-1.093,0.497
		c-0.279,0.331-0.42,0.721-0.42,1.169v4.046h-1.512v-4.858c0-0.597-0.019-1.245-0.056-1.945h1.33l0.069,1.05h0.043
		c0.177-0.327,0.438-0.598,0.783-0.812c0.41-0.252,0.868-0.378,1.372-0.378c0.635,0,1.162,0.206,1.582,0.616
		c0.522,0.504,0.784,1.256,0.784,2.254V138.842z"/>
	<path fill="#FFFFFF" d="M100.151,135.118c0,0.271-0.019,0.499-0.056,0.686H95.56c0.019,0.672,0.238,1.186,0.658,1.54
		c0.382,0.317,0.877,0.476,1.483,0.476c0.672,0,1.283-0.106,1.834-0.321l0.238,1.05c-0.645,0.28-1.404,0.42-2.281,0.42
		c-1.055,0-1.884-0.311-2.485-0.931c-0.603-0.621-0.903-1.454-0.903-2.499c0-1.027,0.28-1.881,0.84-2.562
		c0.588-0.728,1.381-1.092,2.381-1.092c0.979,0,1.721,0.364,2.226,1.092C99.951,133.555,100.151,134.269,100.151,135.118z
		 M98.709,134.726c0.01-0.448-0.088-0.835-0.293-1.162c-0.262-0.42-0.663-0.63-1.205-0.63c-0.494,0-0.896,0.206-1.203,0.616
		c-0.252,0.327-0.401,0.719-0.448,1.176H98.709z"/>
</g>
<g fill-opacity="0.5">
	<path d="M69.597,98.983c0,0.271-0.089,0.49-0.266,0.658c-0.178,0.168-0.406,0.252-0.686,0.252c-0.252,0-0.464-0.086-0.637-0.259
		s-0.259-0.39-0.259-0.651c0-0.261,0.088-0.476,0.266-0.644c0.177-0.169,0.397-0.253,0.658-0.253s0.48,0.084,0.658,0.253
		C69.508,98.508,69.597,98.723,69.597,98.983z M69.429,107.817h-1.512v-6.804h1.512V107.817z"/>
	<path d="M77.479,101.125c0,0.868-0.256,1.563-0.768,2.086c-0.661,0.682-1.624,1.022-2.889,1.022c-0.372,0-0.661-0.023-0.865-0.07
		v3.654h-1.512v-9.31c0.719-0.131,1.54-0.196,2.464-0.196c1.194,0,2.095,0.257,2.702,0.77
		C77.189,99.585,77.479,100.267,77.479,101.125z M75.981,101.195c0-0.551-0.176-0.973-0.529-1.267
		c-0.354-0.294-0.846-0.441-1.478-0.441c-0.418,0-0.757,0.028-1.017,0.084v3.388c0.213,0.057,0.506,0.084,0.878,0.084
		c0.669,0,1.194-0.163,1.575-0.489C75.791,102.227,75.981,101.774,75.981,101.195z"/>
	<path d="M84.633,104.359c0,1.046-0.299,1.904-0.896,2.576c-0.626,0.69-1.456,1.036-2.492,1.036c-0.999,0-1.794-0.331-2.387-0.994
		c-0.593-0.663-0.889-1.498-0.889-2.506c0-1.055,0.306-1.918,0.917-2.59c0.611-0.673,1.435-1.009,2.471-1.009
		c0.998,0,1.801,0.332,2.408,0.994C84.344,102.512,84.633,103.342,84.633,104.359z M83.065,104.395c0-0.624-0.136-1.158-0.406-1.605
		c-0.317-0.54-0.771-0.81-1.358-0.81c-0.606,0-1.068,0.27-1.385,0.81c-0.271,0.447-0.406,0.991-0.406,1.634
		c0,0.623,0.135,1.158,0.406,1.604c0.326,0.54,0.784,0.81,1.372,0.81c0.578,0,1.031-0.274,1.358-0.823
		C82.926,105.558,83.065,105.018,83.065,104.395z"/>
	<path d="M92.151,107.817h-1.345l-0.069-1.092h-0.042c-0.43,0.831-1.158,1.246-2.184,1.246c-0.822,0-1.504-0.322-2.045-0.966
		c-0.541-0.645-0.812-1.479-0.812-2.507c0-1.101,0.296-1.992,0.888-2.674c0.572-0.635,1.275-0.952,2.111-0.952
		c0.92,0,1.562,0.309,1.929,0.925v-3.906h1.513v8.092C92.096,106.646,92.113,107.258,92.151,107.817z M90.583,104.947v-1.134
		c0-0.196-0.015-0.354-0.042-0.477c-0.084-0.363-0.268-0.669-0.549-0.917c-0.281-0.247-0.618-0.37-1.012-0.37
		c-0.562,0-1.005,0.224-1.328,0.672c-0.323,0.447-0.485,1.021-0.485,1.722c0,0.672,0.155,1.218,0.464,1.638
		c0.328,0.448,0.769,0.672,1.322,0.672c0.496,0,0.895-0.187,1.194-0.56C90.438,105.849,90.583,105.433,90.583,104.947z"/>
</g>
<g fill-opacity="0.17">
	<path d="M69.597,100.983c0,0.271-0.089,0.49-0.266,0.658c-0.178,0.168-0.406,0.252-0.686,0.252c-0.252,0-0.464-0.086-0.637-0.259
		s-0.259-0.39-0.259-0.651c0-0.261,0.088-0.476,0.266-0.644c0.177-0.169,0.397-0.253,0.658-0.253s0.48,0.084,0.658,0.253
		C69.508,100.508,69.597,100.723,69.597,100.983z M69.429,109.817h-1.512v-6.804h1.512V109.817z"/>
	<path d="M77.479,103.125c0,0.868-0.256,1.563-0.768,2.086c-0.661,0.682-1.624,1.022-2.889,1.022c-0.372,0-0.661-0.023-0.865-0.07
		v3.654h-1.512v-9.31c0.719-0.131,1.54-0.196,2.464-0.196c1.194,0,2.095,0.257,2.702,0.77
		C77.189,101.585,77.479,102.267,77.479,103.125z M75.981,103.195c0-0.551-0.176-0.973-0.529-1.267
		c-0.354-0.294-0.846-0.441-1.478-0.441c-0.418,0-0.757,0.028-1.017,0.084v3.388c0.213,0.057,0.506,0.084,0.878,0.084
		c0.669,0,1.194-0.163,1.575-0.489C75.791,104.227,75.981,103.774,75.981,103.195z"/>
	<path d="M84.633,106.359c0,1.046-0.299,1.904-0.896,2.576c-0.626,0.69-1.456,1.036-2.492,1.036c-0.999,0-1.794-0.331-2.387-0.994
		c-0.593-0.663-0.889-1.498-0.889-2.506c0-1.055,0.306-1.918,0.917-2.59c0.611-0.673,1.435-1.009,2.471-1.009
		c0.998,0,1.801,0.332,2.408,0.994C84.344,104.512,84.633,105.342,84.633,106.359z M83.065,106.395c0-0.624-0.136-1.158-0.406-1.605
		c-0.317-0.54-0.771-0.81-1.358-0.81c-0.606,0-1.068,0.27-1.385,0.81c-0.271,0.447-0.406,0.991-0.406,1.634
		c0,0.623,0.135,1.158,0.406,1.604c0.326,0.54,0.784,0.81,1.372,0.81c0.578,0,1.031-0.274,1.358-0.823
		C82.926,107.558,83.065,107.018,83.065,106.395z"/>
	<path d="M92.151,109.817h-1.345l-0.069-1.092h-0.042c-0.43,0.831-1.158,1.246-2.184,1.246c-0.822,0-1.504-0.322-2.045-0.966
		c-0.541-0.645-0.812-1.479-0.812-2.507c0-1.101,0.296-1.992,0.888-2.674c0.572-0.635,1.275-0.952,2.111-0.952
		c0.92,0,1.562,0.309,1.929,0.925v-3.906h1.513v8.092C92.096,108.646,92.113,109.258,92.151,109.817z M90.583,106.947v-1.134
		c0-0.196-0.015-0.354-0.042-0.477c-0.084-0.363-0.268-0.669-0.549-0.917c-0.281-0.247-0.618-0.37-1.012-0.37
		c-0.562,0-1.005,0.224-1.328,0.672c-0.323,0.447-0.485,1.021-0.485,1.722c0,0.672,0.155,1.218,0.464,1.638
		c0.328,0.448,0.769,0.672,1.322,0.672c0.496,0,0.895-0.187,1.194-0.56C90.438,107.849,90.583,107.433,90.583,106.947z"/>
</g>
<g>
	<path fill="#FFFFFF" d="M69.597,99.983c0,0.271-0.089,0.49-0.266,0.658c-0.178,0.168-0.406,0.252-0.686,0.252
		c-0.252,0-0.464-0.086-0.637-0.259s-0.259-0.39-0.259-0.651c0-0.261,0.088-0.476,0.266-0.644c0.177-0.169,0.397-0.253,0.658-0.253
		s0.48,0.084,0.658,0.253C69.508,99.508,69.597,99.723,69.597,99.983z M69.429,108.817h-1.512v-6.804h1.512V108.817z"/>
	<path fill="#FFFFFF" d="M77.479,102.125c0,0.868-0.256,1.563-0.768,2.086c-0.661,0.682-1.624,1.022-2.889,1.022
		c-0.372,0-0.661-0.023-0.865-0.07v3.654h-1.512v-9.31c0.719-0.131,1.54-0.196,2.464-0.196c1.194,0,2.095,0.257,2.702,0.77
		C77.189,100.585,77.479,101.267,77.479,102.125z M75.981,102.195c0-0.551-0.176-0.973-0.529-1.267
		c-0.354-0.294-0.846-0.441-1.478-0.441c-0.418,0-0.757,0.028-1.017,0.084v3.388c0.213,0.057,0.506,0.084,0.878,0.084
		c0.669,0,1.194-0.163,1.575-0.489C75.791,103.227,75.981,102.774,75.981,102.195z"/>
	<path fill="#FFFFFF" d="M84.633,105.359c0,1.046-0.299,1.904-0.896,2.576c-0.626,0.69-1.456,1.036-2.492,1.036
		c-0.999,0-1.794-0.331-2.387-0.994c-0.593-0.663-0.889-1.498-0.889-2.506c0-1.055,0.306-1.918,0.917-2.59
		c0.611-0.673,1.435-1.009,2.471-1.009c0.998,0,1.801,0.332,2.408,0.994C84.344,103.512,84.633,104.342,84.633,105.359z
		 M83.065,105.395c0-0.624-0.136-1.158-0.406-1.605c-0.317-0.54-0.771-0.81-1.358-0.81c-0.606,0-1.068,0.27-1.385,0.81
		c-0.271,0.447-0.406,0.991-0.406,1.634c0,0.623,0.135,1.158,0.406,1.604c0.326,0.54,0.784,0.81,1.372,0.81
		c0.578,0,1.031-0.274,1.358-0.823C82.926,106.558,83.065,106.018,83.065,105.395z"/>
	<path fill="#FFFFFF" d="M92.151,108.817h-1.345l-0.069-1.092h-0.042c-0.43,0.831-1.158,1.246-2.184,1.246
		c-0.822,0-1.504-0.322-2.045-0.966c-0.541-0.645-0.812-1.479-0.812-2.507c0-1.101,0.296-1.992,0.888-2.674
		c0.572-0.635,1.275-0.952,2.111-0.952c0.92,0,1.562,0.309,1.929,0.925v-3.906h1.513v8.092
		C92.096,107.646,92.113,108.258,92.151,108.817z M90.583,105.947v-1.134c0-0.196-0.015-0.354-0.042-0.477
		c-0.084-0.363-0.268-0.669-0.549-0.917c-0.281-0.247-0.618-0.37-1.012-0.37c-0.562,0-1.005,0.224-1.328,0.672
		c-0.323,0.447-0.485,1.021-0.485,1.722c0,0.672,0.155,1.218,0.464,1.638c0.328,0.448,0.769,0.672,1.322,0.672
		c0.496,0,0.895-0.187,1.194-0.56C90.438,106.849,90.583,106.433,90.583,105.947z"/>
</g>
<g fill-opacity="0.5">
	<path d="M78.327,77.683h-1.47l-0.196-3.948c-0.093-1.782-0.135-3.107-0.126-3.976h-0.042c-0.299,1.11-0.667,2.301-1.106,3.57
		l-1.47,4.27H72.77l-1.344-4.2c-0.401-1.269-0.728-2.482-0.98-3.64h-0.028c-0.047,1.419-0.103,2.768-0.168,4.046l-0.224,3.878
		h-1.414l0.63-9.436h1.946l1.358,4.088c0.336,1.008,0.63,2.091,0.882,3.248h0.042c0.299-1.204,0.616-2.287,0.952-3.248l1.414-4.088
		h1.946L78.327,77.683z"/>
	<path d="M85.215,77.683h-1.357l-0.113-0.784h-0.041c-0.467,0.626-1.13,0.938-1.988,0.938c-0.645,0-1.162-0.205-1.554-0.616
		c-0.354-0.373-0.532-0.835-0.532-1.386c0-0.831,0.348-1.466,1.043-1.904s1.673-0.653,2.934-0.645V73.16
		c0-0.896-0.473-1.344-1.414-1.344c-0.672,0-1.266,0.168-1.779,0.504l-0.308-0.994c0.634-0.392,1.415-0.588,2.338-0.588
		c1.782,0,2.674,0.938,2.674,2.814v2.506C85.117,76.74,85.149,77.281,85.215,77.683z M83.646,75.345v-1.05
		c-1.67-0.028-2.506,0.429-2.506,1.372c0,0.354,0.098,0.62,0.293,0.798c0.194,0.177,0.44,0.266,0.738,0.266
		c0.334,0,0.643-0.104,0.925-0.314c0.283-0.21,0.457-0.479,0.522-0.806C83.637,75.536,83.646,75.447,83.646,75.345z"/>
	<path d="M91.823,71.061l-0.294,1.148c-0.383-0.187-0.821-0.28-1.316-0.28c-0.662,0-1.188,0.222-1.574,0.665
		c-0.388,0.443-0.582,1.006-0.582,1.687c0,0.719,0.203,1.288,0.609,1.708s0.922,0.63,1.547,0.63c0.467,0,0.924-0.093,1.372-0.279
		l0.21,1.134c-0.494,0.233-1.119,0.35-1.876,0.35c-1.036,0-1.862-0.314-2.478-0.944c-0.616-0.63-0.924-1.473-0.924-2.527
		s0.33-1.92,0.994-2.597c0.662-0.677,1.553-1.016,2.674-1.016C90.82,70.738,91.365,70.846,91.823,71.061z"/>
</g>
<g fill-opacity="0.17">
	<path d="M78.327,79.683h-1.47l-0.196-3.948c-0.093-1.782-0.135-3.107-0.126-3.976h-0.042c-0.299,1.11-0.667,2.301-1.106,3.57
		l-1.47,4.27H72.77l-1.344-4.2c-0.401-1.269-0.728-2.482-0.98-3.64h-0.028c-0.047,1.419-0.103,2.768-0.168,4.046l-0.224,3.878
		h-1.414l0.63-9.436h1.946l1.358,4.088c0.336,1.008,0.63,2.091,0.882,3.248h0.042c0.299-1.204,0.616-2.287,0.952-3.248l1.414-4.088
		h1.946L78.327,79.683z"/>
	<path d="M85.215,79.683h-1.357l-0.113-0.784h-0.041c-0.467,0.626-1.13,0.938-1.988,0.938c-0.645,0-1.162-0.205-1.554-0.616
		c-0.354-0.373-0.532-0.835-0.532-1.386c0-0.831,0.348-1.466,1.043-1.904s1.673-0.653,2.934-0.645V75.16
		c0-0.896-0.473-1.344-1.414-1.344c-0.672,0-1.266,0.168-1.779,0.504l-0.308-0.994c0.634-0.392,1.415-0.588,2.338-0.588
		c1.782,0,2.674,0.938,2.674,2.814v2.506C85.117,78.74,85.149,79.281,85.215,79.683z M83.646,77.345v-1.05
		c-1.67-0.028-2.506,0.429-2.506,1.372c0,0.354,0.098,0.62,0.293,0.798c0.194,0.177,0.44,0.266,0.738,0.266
		c0.334,0,0.643-0.104,0.925-0.314c0.283-0.21,0.457-0.479,0.522-0.806C83.637,77.536,83.646,77.447,83.646,77.345z"/>
	<path d="M91.823,73.061l-0.294,1.148c-0.383-0.187-0.821-0.28-1.316-0.28c-0.662,0-1.188,0.222-1.574,0.665
		c-0.388,0.443-0.582,1.006-0.582,1.687c0,0.719,0.203,1.288,0.609,1.708s0.922,0.63,1.547,0.63c0.467,0,0.924-0.093,1.372-0.279
		l0.21,1.134c-0.494,0.233-1.119,0.35-1.876,0.35c-1.036,0-1.862-0.314-2.478-0.944c-0.616-0.63-0.924-1.473-0.924-2.527
		s0.33-1.92,0.994-2.597c0.662-0.677,1.553-1.016,2.674-1.016C90.82,72.738,91.365,72.846,91.823,73.061z"/>
</g>
<g>
	<path fill="#FFFFFF" d="M78.327,78.683h-1.47l-0.196-3.948c-0.093-1.782-0.135-3.107-0.126-3.976h-0.042
		c-0.299,1.11-0.667,2.301-1.106,3.57l-1.47,4.27H72.77l-1.344-4.2c-0.401-1.269-0.728-2.482-0.98-3.64h-0.028
		c-0.047,1.419-0.103,2.768-0.168,4.046l-0.224,3.878h-1.414l0.63-9.436h1.946l1.358,4.088c0.336,1.008,0.63,2.091,0.882,3.248
		h0.042c0.299-1.204,0.616-2.287,0.952-3.248l1.414-4.088h1.946L78.327,78.683z"/>
	<path fill="#FFFFFF" d="M85.215,78.683h-1.357l-0.113-0.784h-0.041c-0.467,0.626-1.13,0.938-1.988,0.938
		c-0.645,0-1.162-0.205-1.554-0.616c-0.354-0.373-0.532-0.835-0.532-1.386c0-0.831,0.348-1.466,1.043-1.904s1.673-0.653,2.934-0.645
		V74.16c0-0.896-0.473-1.344-1.414-1.344c-0.672,0-1.266,0.168-1.779,0.504l-0.308-0.994c0.634-0.392,1.415-0.588,2.338-0.588
		c1.782,0,2.674,0.938,2.674,2.814v2.506C85.117,77.74,85.149,78.281,85.215,78.683z M83.646,76.345v-1.05
		c-1.67-0.028-2.506,0.429-2.506,1.372c0,0.354,0.098,0.62,0.293,0.798c0.194,0.177,0.44,0.266,0.738,0.266
		c0.334,0,0.643-0.104,0.925-0.314c0.283-0.21,0.457-0.479,0.522-0.806C83.637,76.536,83.646,76.447,83.646,76.345z"/>
	<path fill="#FFFFFF" d="M91.823,72.061l-0.294,1.148c-0.383-0.187-0.821-0.28-1.316-0.28c-0.662,0-1.188,0.222-1.574,0.665
		c-0.388,0.443-0.582,1.006-0.582,1.687c0,0.719,0.203,1.288,0.609,1.708s0.922,0.63,1.547,0.63c0.467,0,0.924-0.093,1.372-0.279
		l0.21,1.134c-0.494,0.233-1.119,0.35-1.876,0.35c-1.036,0-1.862-0.314-2.478-0.944c-0.616-0.63-0.924-1.473-0.924-2.527
		s0.33-1.92,0.994-2.597c0.662-0.677,1.553-1.016,2.674-1.016C90.82,71.738,91.365,71.846,91.823,72.061z"/>
</g>
<g fill-opacity="0.5">
	<path d="M70.516,45.01c0,0.804-0.279,1.456-0.838,1.961c-0.614,0.551-1.471,0.825-2.57,0.825c-1.015,0-1.83-0.195-2.444-0.588
		l0.35-1.26c0.663,0.392,1.391,0.588,2.184,0.588c0.569,0,1.012-0.128,1.33-0.385s0.476-0.6,0.476-1.029
		c0-0.383-0.131-0.704-0.392-0.966c-0.261-0.261-0.695-0.504-1.302-0.728c-1.652-0.616-2.478-1.517-2.478-2.702
		c0-0.775,0.292-1.409,0.875-1.904c0.583-0.494,1.355-0.742,2.317-0.742c0.859,0,1.573,0.149,2.142,0.448l-0.379,1.231
		c-0.534-0.289-1.138-0.434-1.812-0.434c-0.534,0-0.951,0.131-1.251,0.392c-0.253,0.233-0.379,0.519-0.379,0.854
		c0,0.373,0.145,0.682,0.434,0.924c0.252,0.225,0.709,0.467,1.372,0.729c0.812,0.326,1.409,0.709,1.792,1.147
		C70.324,43.812,70.516,44.357,70.516,45.01z"/>
	<path d="M75.429,41.986h-1.666v3.304c0,0.84,0.294,1.26,0.882,1.26c0.271,0,0.495-0.022,0.672-0.069l0.042,1.147
		c-0.299,0.112-0.691,0.168-1.176,0.168c-0.597,0-1.064-0.182-1.4-0.546c-0.336-0.363-0.504-0.975-0.504-1.834v-3.43h-0.994v-1.134
		h0.994v-1.246l1.484-0.448v1.694h1.666V41.986z"/>
	<path d="M82.863,44.198c0,1.046-0.299,1.904-0.896,2.576c-0.625,0.69-1.455,1.036-2.492,1.036c-0.999,0-1.794-0.331-2.387-0.994
		c-0.593-0.663-0.889-1.498-0.889-2.506c0-1.055,0.306-1.918,0.917-2.59c0.611-0.673,1.435-1.009,2.471-1.009
		c0.999,0,1.801,0.332,2.408,0.994C82.574,42.351,82.863,43.181,82.863,44.198z M81.295,44.233c0-0.624-0.135-1.158-0.406-1.605
		c-0.316-0.54-0.77-0.81-1.357-0.81c-0.607,0-1.069,0.27-1.386,0.81c-0.271,0.447-0.406,0.991-0.406,1.634
		c0,0.623,0.135,1.158,0.406,1.604c0.326,0.54,0.784,0.81,1.372,0.81c0.579,0,1.032-0.274,1.358-0.823
		C81.155,45.396,81.295,44.856,81.295,44.233z"/>
	<path d="M87.903,42.183c-0.149-0.028-0.308-0.042-0.476-0.042c-0.532,0-0.943,0.2-1.232,0.602
		c-0.252,0.354-0.378,0.803-0.378,1.344v3.57h-1.512v-4.662c0-0.784-0.015-1.498-0.042-2.142h1.316l0.056,1.302h0.042
		c0.158-0.448,0.41-0.808,0.756-1.078c0.336-0.242,0.699-0.364,1.092-0.364c0.141,0,0.266,0.01,0.378,0.028V42.183z"/>
	<path d="M94.566,43.933c0,0.271-0.018,0.499-0.055,0.686h-4.537c0.02,0.672,0.238,1.186,0.658,1.54
		c0.383,0.317,0.877,0.476,1.484,0.476c0.672,0,1.283-0.106,1.834-0.321l0.238,1.05c-0.645,0.28-1.405,0.42-2.282,0.42
		c-1.055,0-1.884-0.311-2.485-0.931c-0.602-0.621-0.902-1.454-0.902-2.499c0-1.027,0.279-1.881,0.84-2.562
		c0.588-0.728,1.381-1.092,2.38-1.092c0.979,0,1.722,0.364,2.226,1.092C94.366,42.369,94.566,43.083,94.566,43.933z M93.125,43.54
		c0.01-0.448-0.089-0.835-0.294-1.162c-0.261-0.42-0.663-0.63-1.204-0.63c-0.494,0-0.896,0.206-1.203,0.616
		c-0.253,0.327-0.402,0.719-0.449,1.176H93.125z"/>
</g>
<g fill-opacity="0.17">
	<path d="M70.516,47.01c0,0.804-0.279,1.456-0.838,1.961c-0.614,0.551-1.471,0.825-2.57,0.825c-1.015,0-1.83-0.195-2.444-0.588
		l0.35-1.26c0.663,0.392,1.391,0.588,2.184,0.588c0.569,0,1.012-0.128,1.33-0.385s0.476-0.6,0.476-1.029
		c0-0.383-0.131-0.704-0.392-0.966c-0.261-0.261-0.695-0.504-1.302-0.728c-1.652-0.616-2.478-1.517-2.478-2.702
		c0-0.775,0.292-1.409,0.875-1.904c0.583-0.494,1.355-0.742,2.317-0.742c0.859,0,1.573,0.149,2.142,0.448l-0.379,1.231
		c-0.534-0.289-1.138-0.434-1.812-0.434c-0.534,0-0.951,0.131-1.251,0.392c-0.253,0.233-0.379,0.519-0.379,0.854
		c0,0.373,0.145,0.682,0.434,0.924c0.252,0.225,0.709,0.467,1.372,0.729c0.812,0.326,1.409,0.709,1.792,1.147
		C70.324,45.812,70.516,46.357,70.516,47.01z"/>
	<path d="M75.429,43.986h-1.666v3.304c0,0.84,0.294,1.26,0.882,1.26c0.271,0,0.495-0.022,0.672-0.069l0.042,1.147
		c-0.299,0.112-0.691,0.168-1.176,0.168c-0.597,0-1.064-0.182-1.4-0.546c-0.336-0.363-0.504-0.975-0.504-1.834v-3.43h-0.994v-1.134
		h0.994v-1.246l1.484-0.448v1.694h1.666V43.986z"/>
	<path d="M82.863,46.198c0,1.046-0.299,1.904-0.896,2.576c-0.625,0.69-1.455,1.036-2.492,1.036c-0.999,0-1.794-0.331-2.387-0.994
		c-0.593-0.663-0.889-1.498-0.889-2.506c0-1.055,0.306-1.918,0.917-2.59c0.611-0.673,1.435-1.009,2.471-1.009
		c0.999,0,1.801,0.332,2.408,0.994C82.574,44.351,82.863,45.181,82.863,46.198z M81.295,46.233c0-0.624-0.135-1.158-0.406-1.605
		c-0.316-0.54-0.77-0.81-1.357-0.81c-0.607,0-1.069,0.27-1.386,0.81c-0.271,0.447-0.406,0.991-0.406,1.634
		c0,0.623,0.135,1.158,0.406,1.604c0.326,0.54,0.784,0.81,1.372,0.81c0.579,0,1.032-0.274,1.358-0.823
		C81.155,47.396,81.295,46.856,81.295,46.233z"/>
	<path d="M87.903,44.183c-0.149-0.028-0.308-0.042-0.476-0.042c-0.532,0-0.943,0.2-1.232,0.602
		c-0.252,0.354-0.378,0.803-0.378,1.344v3.57h-1.512v-4.662c0-0.784-0.015-1.498-0.042-2.142h1.316l0.056,1.302h0.042
		c0.158-0.448,0.41-0.808,0.756-1.078c0.336-0.242,0.699-0.364,1.092-0.364c0.141,0,0.266,0.01,0.378,0.028V44.183z"/>
	<path d="M94.566,45.933c0,0.271-0.018,0.499-0.055,0.686h-4.537c0.02,0.672,0.238,1.186,0.658,1.54
		c0.383,0.317,0.877,0.476,1.484,0.476c0.672,0,1.283-0.106,1.834-0.321l0.238,1.05c-0.645,0.28-1.405,0.42-2.282,0.42
		c-1.055,0-1.884-0.311-2.485-0.931c-0.602-0.621-0.902-1.454-0.902-2.499c0-1.027,0.279-1.881,0.84-2.562
		c0.588-0.728,1.381-1.092,2.38-1.092c0.979,0,1.722,0.364,2.226,1.092C94.366,44.369,94.566,45.083,94.566,45.933z M93.125,45.54
		c0.01-0.448-0.089-0.835-0.294-1.162c-0.261-0.42-0.663-0.63-1.204-0.63c-0.494,0-0.896,0.206-1.203,0.616
		c-0.253,0.327-0.402,0.719-0.449,1.176H93.125z"/>
</g>
<g>
	<path fill="#FFFFFF" d="M70.516,46.01c0,0.804-0.279,1.456-0.838,1.961c-0.614,0.551-1.471,0.825-2.57,0.825
		c-1.015,0-1.83-0.195-2.444-0.588l0.35-1.26c0.663,0.392,1.391,0.588,2.184,0.588c0.569,0,1.012-0.128,1.33-0.385
		s0.476-0.6,0.476-1.029c0-0.383-0.131-0.704-0.392-0.966c-0.261-0.261-0.695-0.504-1.302-0.728
		c-1.652-0.616-2.478-1.517-2.478-2.702c0-0.775,0.292-1.409,0.875-1.904c0.583-0.494,1.355-0.742,2.317-0.742
		c0.859,0,1.573,0.149,2.142,0.448l-0.379,1.231c-0.534-0.289-1.138-0.434-1.812-0.434c-0.534,0-0.951,0.131-1.251,0.392
		c-0.253,0.233-0.379,0.519-0.379,0.854c0,0.373,0.145,0.682,0.434,0.924c0.252,0.225,0.709,0.467,1.372,0.729
		c0.812,0.326,1.409,0.709,1.792,1.147C70.324,44.812,70.516,45.357,70.516,46.01z"/>
	<path fill="#FFFFFF" d="M75.429,42.986h-1.666v3.304c0,0.84,0.294,1.26,0.882,1.26c0.271,0,0.495-0.022,0.672-0.069l0.042,1.147
		c-0.299,0.112-0.691,0.168-1.176,0.168c-0.597,0-1.064-0.182-1.4-0.546c-0.336-0.363-0.504-0.975-0.504-1.834v-3.43h-0.994v-1.134
		h0.994v-1.246l1.484-0.448v1.694h1.666V42.986z"/>
	<path fill="#FFFFFF" d="M82.863,45.198c0,1.046-0.299,1.904-0.896,2.576c-0.625,0.69-1.455,1.036-2.492,1.036
		c-0.999,0-1.794-0.331-2.387-0.994c-0.593-0.663-0.889-1.498-0.889-2.506c0-1.055,0.306-1.918,0.917-2.59
		c0.611-0.673,1.435-1.009,2.471-1.009c0.999,0,1.801,0.332,2.408,0.994C82.574,43.351,82.863,44.181,82.863,45.198z M81.295,45.233
		c0-0.624-0.135-1.158-0.406-1.605c-0.316-0.54-0.77-0.81-1.357-0.81c-0.607,0-1.069,0.27-1.386,0.81
		c-0.271,0.447-0.406,0.991-0.406,1.634c0,0.623,0.135,1.158,0.406,1.604c0.326,0.54,0.784,0.81,1.372,0.81
		c0.579,0,1.032-0.274,1.358-0.823C81.155,46.396,81.295,45.856,81.295,45.233z"/>
	<path fill="#FFFFFF" d="M87.903,43.183c-0.149-0.028-0.308-0.042-0.476-0.042c-0.532,0-0.943,0.2-1.232,0.602
		c-0.252,0.354-0.378,0.803-0.378,1.344v3.57h-1.512v-4.662c0-0.784-0.015-1.498-0.042-2.142h1.316l0.056,1.302h0.042
		c0.158-0.448,0.41-0.808,0.756-1.078c0.336-0.242,0.699-0.364,1.092-0.364c0.141,0,0.266,0.01,0.378,0.028V43.183z"/>
	<path fill="#FFFFFF" d="M94.566,44.933c0,0.271-0.018,0.499-0.055,0.686h-4.537c0.02,0.672,0.238,1.186,0.658,1.54
		c0.383,0.317,0.877,0.476,1.484,0.476c0.672,0,1.283-0.106,1.834-0.321l0.238,1.05c-0.645,0.28-1.405,0.42-2.282,0.42
		c-1.055,0-1.884-0.311-2.485-0.931c-0.602-0.621-0.902-1.454-0.902-2.499c0-1.027,0.279-1.881,0.84-2.562
		c0.588-0.728,1.381-1.092,2.38-1.092c0.979,0,1.722,0.364,2.226,1.092C94.366,43.369,94.566,44.083,94.566,44.933z M93.125,44.54
		c0.01-0.448-0.089-0.835-0.294-1.162c-0.261-0.42-0.663-0.63-1.204-0.63c-0.494,0-0.896,0.206-1.203,0.616
		c-0.253,0.327-0.402,0.719-0.449,1.176H93.125z"/>
</g>
<g>
	<path fill-opacity="0.5" d="M85.559,13.858c-0.022-2.604,2.125-3.856,2.227-3.916c-1.21-1.771-3.096-2.014-3.77-2.042
		c-1.602-0.162-3.125,0.944-3.938,0.944c-0.813,0-2.067-0.921-3.397-0.896c-1.748,0.024-3.357,1.016-4.257,2.579
		c-1.815,3.148-0.464,7.813,1.304,10.369c0.864,1.25,1.895,2.655,3.249,2.604c1.305-0.051,1.797-0.843,3.374-0.843
		c1.574,0,2.018,0.843,3.396,0.817c1.401-0.025,2.292-1.275,3.149-2.529c0.992-1.45,1.396-2.854,1.424-2.927
		C88.289,18.009,85.586,16.973,85.559,13.858z"/>
	<path fill-opacity="0.5" d="M82.967,6.21c0.719-0.871,1.204-2.082,1.07-3.287c-1.035,0.042-2.288,0.69-3.032,1.561
		c-0.666,0.77-1.249,2.003-1.091,3.184C81.068,7.756,82.249,7.08,82.967,6.21z"/>
</g>
<g>
	
		<linearGradient id="SVGID_1_" gradientUnits="userSpaceOnUse" x1="541.9414" y1="701.8838" x2="541.9414" y2="717.501" gradientTransform="matrix(1 0 0 1 -462 -693)">
		<stop  offset="0" style="stop-color:#F3F4F5"/>
		<stop  offset="0.3145" style="stop-color:#E6E7E8"/>
		<stop  offset="0.9005" style="stop-color:#C5C4C4"/>
		<stop  offset="0.9939" style="stop-color:#BFBEBE"/>
	</linearGradient>
	<path fill="url(#SVGID_1_)" d="M85.559,14.858c-0.022-2.604,2.125-3.856,2.227-3.916c-1.21-1.771-3.096-2.014-3.77-2.042
		c-1.602-0.162-3.125,0.944-3.938,0.944c-0.813,0-2.067-0.921-3.397-0.896c-1.748,0.024-3.357,1.016-4.257,2.579
		c-1.815,3.148-0.464,7.813,1.304,10.369c0.864,1.25,1.895,2.655,3.249,2.604c1.305-0.051,1.797-0.843,3.374-0.843
		c1.574,0,2.018,0.843,3.396,0.817c1.401-0.025,2.292-1.275,3.149-2.529c0.992-1.45,1.396-2.854,1.424-2.927
		C88.289,19.009,85.586,17.973,85.559,14.858z"/>
	<path fill="#F6F7F7" d="M82.967,7.21c0.719-0.871,1.204-2.082,1.07-3.287c-1.035,0.042-2.288,0.69-3.032,1.561
		c-0.666,0.77-1.249,2.003-1.091,3.184C81.068,8.756,82.249,8.08,82.967,7.21z"/>
	<path fill="#BFBEBE" d="M76.975,24.503c1.305-0.051,1.797-0.843,3.374-0.843c1.574,0,2.018,0.843,3.396,0.817
		c1.401-0.025,2.292-1.275,3.149-2.529c0.435-0.634,0.758-1.26,0.981-1.771c-0.758-0.012-1.603-0.021-2.276-0.021
		c-1.654,0-2.31-0.326-5.421-0.326c-3.115,0-3.692,0.418-5.229,0.533c-0.705,0.054-1.466,0.058-2.084,0.046
		c0.266,0.546,0.557,1.048,0.862,1.487C74.591,23.148,75.622,24.555,76.975,24.503z"/>
</g>
</svg>
